<?xml version="1.0" encoding="UTF-8" standalone="no"?>
<!-- Created with Inkscape (http://www.inkscape.org/) -->

<svg
   xmlns:dc="http://purl.org/dc/elements/1.1/"
   xmlns:cc="http://creativecommons.org/ns#"
   xmlns:rdf="http://www.w3.org/1999/02/22-rdf-syntax-ns#"
   xmlns:svg="http://www.w3.org/2000/svg"
   xmlns="http://www.w3.org/2000/svg"
   xmlns:sodipodi="http://sodipodi.sourceforge.net/DTD/sodipodi-0.dtd"
   xmlns:inkscape="http://www.inkscape.org/namespaces/inkscape"
   version="1.1"
   id="svg2"
   xml:space="preserve"
   width="142.4"
   height="23.8"
   viewBox="0 0 541.47949 87.305733"
   sodipodi:docname="LOGO_Intellinium_2020.svg"
   inkscape:version="0.92.4 (5da689c313, 2019-01-14)"
   inkscape:export-filename="C:\Users\MathieuDestrian\Documents\INTELLINIUM\Communication\Logo Intellinium\LOGO_Intellinium_2020_SansFond.png"
   inkscape:export-xdpi="1219.4957"
   inkscape:export-ydpi="1219.4957"><metadata
     id="metadata8"><rdf:RDF><cc:Work
         rdf:about=""><dc:format>image/svg+xml</dc:format><dc:type
           rdf:resource="http://purl.org/dc/dcmitype/StillImage" /><dc:title></dc:title></cc:Work></rdf:RDF></metadata><defs
     id="defs6"><clipPath
       clipPathUnits="userSpaceOnUse"
       id="clipPath72"><path
         d="M 0,318 H 618 V 0 H 0 Z"
         id="path70"
         inkscape:connector-curvature="0" /></clipPath></defs><sodipodi:namedview
     pagecolor="#ffffff"
     bordercolor="#666666"
     borderopacity="1"
     objecttolerance="10"
     gridtolerance="10"
     guidetolerance="10"
     inkscape:pageopacity="0"
     inkscape:pageshadow="2"
     inkscape:window-width="3840"
     inkscape:window-height="2126"
     id="namedview4"
     showgrid="false"
     inkscape:zoom="3.7471088"
     inkscape:cx="329.92039"
     inkscape:cy="-22.562239"
     inkscape:window-x="-11"
     inkscape:window-y="-11"
     inkscape:window-maximized="1"
     inkscape:current-layer="g10" /><g
     id="g10"
     inkscape:groupmode="layer"
     inkscape:label="FINALLogo_GF"
     transform="matrix(1.3333333,0,0,-1.3333333,-117.21284,257.39004)"
     style="display:inline;opacity:1"><g
       id="g48"
       transform="translate(0.20015435,-0.60046346)"><path
         inkscape:connector-curvature="0"
         id="path64"
         style="fill:#9e0e40;fill-opacity:1;fill-rule:nonzero;stroke:none;stroke-width:1.58910024"
         d="M 87.709475,193.643 H 109.43916 V 129.219 H 87.709475 Z" /><g
         id="g66"><g
           clip-path="url(#clipPath72)"
           id="g68"><g
             transform="translate(119.4082,129.2187)"
             id="g74"><path
               inkscape:connector-curvature="0"
               id="path76"
               style="fill:#4d6575;fill-opacity:1;fill-rule:nonzero;stroke:none"
               d="m 0,0 v 46.67 h 7.186 v -6.636 c 3.459,5.127 8.456,7.691 14.991,7.691 2.839,0 5.448,-0.506 7.829,-1.517 2.38,-1.01 4.161,-2.336 5.345,-3.977 1.182,-1.641 2.01,-3.588 2.483,-5.844 0.295,-1.466 0.444,-4.029 0.444,-7.691 V 0 h -7.984 v 28.389 c 0,3.222 -0.311,5.632 -0.931,7.229 -0.621,1.596 -1.723,2.871 -3.305,3.823 -1.582,0.952 -3.437,1.428 -5.566,1.428 -3.401,0 -6.336,-1.07 -8.804,-3.208 C 9.218,35.522 7.984,31.465 7.984,25.488 V 0 Z" /></g><g
             transform="translate(187.6313,136.2939)"
             id="g78"><path
               inkscape:connector-curvature="0"
               id="path80"
               style="fill:#4d6575;fill-opacity:1;fill-rule:nonzero;stroke:none"
               d="m 0,0 1.153,-6.987 c -2.247,-0.469 -4.257,-0.703 -6.032,-0.703 -2.898,0 -5.145,0.454 -6.742,1.362 -1.596,0.908 -2.72,2.101 -3.371,3.581 -0.651,1.479 -0.975,4.593 -0.975,9.339 v 26.85 h -5.855 v 6.153 h 5.855 v 11.557 l 7.939,4.746 V 39.595 H 0 V 33.442 H -8.028 V 6.152 c 0,-2.256 0.14,-3.706 0.422,-4.35 0.28,-0.645 0.738,-1.157 1.375,-1.538 0.635,-0.381 1.544,-0.572 2.727,-0.572 0.887,0 2.055,0.103 3.504,0.308" /></g><g
             transform="translate(201.8335,157.0361)"
             id="g82"><path
               inkscape:connector-curvature="0"
               id="path84"
               style="fill:#4d6575;fill-opacity:1;fill-rule:nonzero;stroke:none"
               d="m 0,0 h 26.302 c -0.355,3.926 -1.36,6.87 -3.016,8.833 -2.543,3.047 -5.84,4.57 -9.891,4.57 -3.667,0 -6.749,-1.215 -9.248,-3.647 C 1.648,7.324 0.266,4.072 0,0 m 26.213,-12.788 8.25,-1.011 c -1.301,-4.775 -3.711,-8.481 -7.23,-11.118 -3.519,-2.637 -8.013,-3.955 -13.483,-3.955 -6.89,0 -12.353,2.101 -16.389,6.307 -4.036,4.203 -6.054,10.099 -6.054,17.687 0,7.851 2.04,13.945 6.12,18.281 4.081,4.336 9.374,6.504 15.879,6.504 6.298,0 11.444,-2.124 15.436,-6.372 3.991,-4.248 5.987,-10.224 5.987,-17.93 0,-0.468 -0.015,-1.171 -0.044,-2.109 H -0.443 c 0.295,-5.127 1.758,-9.053 4.391,-11.777 2.631,-2.725 5.913,-4.087 9.846,-4.087 2.928,0 5.426,0.762 7.496,2.285 2.069,1.523 3.71,3.955 4.923,7.295" /></g><path
             inkscape:connector-curvature="0"
             id="path86"
             style="fill:#4d6575;fill-opacity:1;fill-rule:nonzero;stroke:none"
             d="m 246.416,193.643 h 7.984 v -64.424 h -7.984 z" /><path
             inkscape:connector-curvature="0"
             id="path88"
             style="fill:#4d6575;fill-opacity:1;fill-rule:nonzero;stroke:none"
             d="m 266.87,193.643 h 7.984 v -64.424 h -7.984 z" /><path
             inkscape:connector-curvature="0"
             id="path90"
             style="fill:#4d6575;fill-opacity:1;fill-rule:nonzero;stroke:none"
             d="m 287.545,175.889 h 7.984 v -46.67 h -7.984 z m 0,17.754 h 7.984 v -9.097 h -7.984 z" /><g
             transform="translate(307.9546,129.2187)"
             id="g92"><path
               inkscape:connector-curvature="0"
               id="path94"
               style="fill:#4d6575;fill-opacity:1;fill-rule:nonzero;stroke:none"
               d="m 0,0 v 46.67 h 7.185 v -6.636 c 3.46,5.127 8.457,7.691 14.992,7.691 2.839,0 5.448,-0.506 7.828,-1.517 2.38,-1.01 4.162,-2.336 5.345,-3.977 1.183,-1.641 2.011,-3.588 2.484,-5.844 0.295,-1.466 0.444,-4.029 0.444,-7.691 V 0 h -7.984 v 28.389 c 0,3.222 -0.31,5.632 -0.931,7.229 -0.621,1.596 -1.723,2.871 -3.305,3.823 -1.582,0.952 -3.437,1.428 -5.566,1.428 -3.401,0 -6.336,-1.07 -8.805,-3.208 C 9.218,35.522 7.984,31.465 7.984,25.488 V 0 Z" /></g><path
             inkscape:connector-curvature="0"
             id="path96"
             style="fill:#4d6575;fill-opacity:1;fill-rule:nonzero;stroke:none"
             d="m 358.791,175.889 h 7.983 v -46.67 h -7.983 z m 0,17.754 h 7.983 v -9.097 h -7.983 z" /><g
             transform="translate(410.0723,129.2187)"
             id="g98"><path
               inkscape:connector-curvature="0"
               id="path100"
               style="fill:#4d6575;fill-opacity:1;fill-rule:nonzero;stroke:none"
               d="m 0,0 v 6.855 c -3.667,-5.273 -8.649,-7.91 -14.947,-7.91 -2.781,0 -5.375,0.528 -7.784,1.582 -2.411,1.055 -4.2,2.38 -5.368,3.977 -1.168,1.597 -1.989,3.553 -2.462,5.867 -0.325,1.553 -0.487,4.014 -0.487,7.383 V 46.67 h 7.984 V 20.786 c 0,-4.131 0.162,-6.914 0.488,-8.349 0.502,-2.081 1.566,-3.714 3.193,-4.9 1.626,-1.187 3.637,-1.78 6.032,-1.78 2.396,0 4.642,0.607 6.743,1.823 2.098,1.216 3.585,2.871 4.457,4.967 0.872,2.094 1.308,5.134 1.308,9.118 V 46.67 H 7.142 V 0 Z" /></g><g
             transform="translate(429.9941,129.2187)"
             id="g102"><path
               inkscape:connector-curvature="0"
               id="path104"
               style="fill:#4d6575;fill-opacity:1;fill-rule:nonzero;stroke:none"
               d="m 0,0 v 46.67 h 7.141 v -6.548 c 1.478,2.285 3.444,4.124 5.899,5.515 2.454,1.391 5.248,2.088 8.383,2.088 3.488,0 6.349,-0.719 8.582,-2.154 2.232,-1.435 3.808,-3.443 4.724,-6.02 3.726,5.449 8.575,8.174 14.548,8.174 4.672,0 8.265,-1.282 10.779,-3.846 2.512,-2.564 3.769,-6.511 3.769,-11.843 V 0 h -7.939 v 29.399 c 0,3.164 -0.259,5.442 -0.777,6.834 -0.517,1.391 -1.456,2.512 -2.816,3.362 -1.36,0.849 -2.957,1.274 -4.79,1.274 -3.312,0 -6.062,-1.092 -8.25,-3.274 -2.189,-2.182 -3.282,-5.676 -3.282,-10.481 V 0 h -7.984 v 30.322 c 0,3.516 -0.651,6.153 -1.952,7.91 -1.301,1.758 -3.43,2.637 -6.387,2.637 -2.247,0 -4.324,-0.586 -6.231,-1.758 C 11.51,37.939 10.127,36.226 9.27,33.97 8.412,31.713 7.983,28.462 7.983,24.214 V 0 Z" /></g></g></g></g></g></svg>
